<svg id="Ñëîé_1" data-name="Ñëîé 1" xmlns="http://www.w3.org/2000/svg" viewBox="0 0 600 400"><defs><style>.cls-1{fill:#ff2c9c;}.cls-2{fill:#d4ecff;}.cls-3{fill:#396caa;}.cls-4{fill:#5793ce;}.cls-5{fill:#c4d9e8;}.cls-6{fill:#173d7a;}.cls-7{fill:#fff;}.cls-8{fill:#d3d0cf;}.cls-9{fill:#f2f2f2;}.cls-10{fill:#ffc2b0;}.cls-11{fill:#ea9c92;}.cls-12{fill:#274f89;}.cls-13{fill:#d3008d;}</style></defs><title>866 [Convertido]</title><path class="cls-1" d="M0,0V86.57a29.08,29.08,0,0,0,27.91,4.12l47.85-18A29.09,29.09,0,0,0,92.69,55.71l18-47.86A28.85,28.85,0,0,0,112.5,0Z"/><path class="cls-2" d="M600,301.4l-66.15,41A15.7,15.7,0,0,0,528.74,364L551,400h49Z"/><path class="cls-3" d="M84.15,329.55A18.47,18.47,0,0,0,71,316.62L32,306.57a18.47,18.47,0,0,0-17.8,5L0,326v74H76.85l13.49-13.76A18.48,18.48,0,0,0,95,368.35Z"/><rect class="cls-4" x="515.93" y="300.83" width="1.91" height="5.54" transform="translate(682.64 -272.47) rotate(75.62)"/><rect class="cls-4" x="513.19" y="303.51" width="1.91" height="5.54" transform="translate(683.21 -267.8) rotate(75.63)"/><rect class="cls-4" x="510.45" y="306.18" width="1.91" height="5.54" transform="translate(683.73 -263.14) rotate(75.63)"/><rect class="cls-4" x="507.71" y="308.85" width="1.91" height="5.54" transform="translate(684.24 -258.48) rotate(75.62)"/><path class="cls-5" d="M401,137.13,350.59,166.7c-12.78-3.92-29.06-2.71-39.8,3.59-13.07,7.67-13,20,.19,27.44a40.52,40.52,0,0,0,9.92,3.89,54.23,54.23,0,0,0,7.88,1.36c10.48,1,21.66-.85,29.73-5.58,9.76-5.73,12.18-14,7.28-21l7-4.08-.2-4.41,7.32,0-.19-4.14,7.32-.05-.18-4.13,7.31,0-.18-4.14,7.32,0-.19-4.13,7.82-.06,2.38-1.4,2.63-10.85ZM330.07,193.7a13.65,13.65,0,0,1-12.37.09c-3.43-1.95-3.46-5.14-.05-7.14a13.65,13.65,0,0,1,12.37-.09C333.45,188.51,333.47,191.71,330.07,193.7Z"/><path class="cls-5" d="M428.55,324.17l-68-39.08c-4.58-2.64-4-7.26,1.28-10.31l66-38.08c5.28-3,13.27-3.39,17.85-.74l68,39.07c4.58,2.65,4,7.26-1.28,10.31l-66,38.09C441.12,326.48,433.13,326.81,428.55,324.17Z"/><path class="cls-4" d="M508.24,235.57l-11.75-6.79,43.32-25c2.05-1.18,2.05-3.1,0-4.28l-44.26-25.56a8.22,8.22,0,0,0-7.42,0L444.8,199l-11.75-6.79,43.33-25c8.52-4.92,22.39-4.92,30.92,0l44.26,25.55c8.52,4.92,8.52,12.93,0,17.85Z"/><path class="cls-2" d="M527.2,238.55c0-6.28-3.82-13.57-8.53-16.29l-78.5-45.32c-2.11-1.22-4-1.31-5.53-.48h0l-93.72,54.46,90.63,68.3,92.33-53.59a4,4,0,0,0,.82-.48h0C526.24,244,527.2,241.69,527.2,238.55Z"/><path class="cls-6" d="M431.55,299.22l92.33-53.59a4,4,0,0,0,.82-.48h0c1.54-1.17,2.5-3.46,2.5-6.6a20.94,20.94,0,0,0-2.3-9.07L419.64,290.25Z"/><path class="cls-4" d="M425.65,299l-78.5-45.31c-4.71-2.72-8.53-10-8.53-16.3h0c0-6.29,3.82-9.17,8.53-6.45l78.5,45.32c4.71,2.72,8.53,10,8.53,16.3h0C434.18,298.81,430.36,301.69,425.65,299Z"/><path class="cls-7" d="M413.89,283.69l-9.44-5.44a4.09,4.09,0,0,1-1.7-3.25h0c0-1.25.76-1.83,1.7-1.29l9.44,5.45a4.06,4.06,0,0,1,1.7,3.25h0C415.59,283.66,414.83,284.23,413.89,283.69Z"/><polygon class="cls-3" points="343.03 124.1 359.16 133.26 375.61 123.61 375.57 119.41 375.43 119.49 375.42 119.2 382.73 119.14 382.69 115.01 389.87 114.96 389.82 110.82 397 110.77 396.96 106.64 404.13 106.59 404.09 102.45 411.76 102.4 414.15 101 416.78 90.15 416.73 85.95 415.46 89.97 403.85 88.42 343.03 124.1"/><polygon class="cls-2" points="359.11 129.06 375.57 119.41 375.37 115 382.69 114.94 382.5 110.81 389.82 110.76 389.64 106.63 396.96 106.57 396.77 102.44 404.09 102.39 403.91 98.25 411.72 98.2 414.1 96.8 416.73 85.95 403.81 84.22 342.99 119.9 359.11 129.06"/><path class="cls-3" d="M370.07,122.64a22.59,22.59,0,0,0-7.47-6.45,38.85,38.85,0,0,0-7.73-3.26l-11.88,7,16.12,9.17Z"/><polygon class="cls-4" points="416.29 87.77 416.73 85.95 414.56 85.66 363.18 115.81 365.88 117.34 416.29 87.77"/><polygon class="cls-8" points="304.05 137.35 303.87 131.38 305.78 135.41 304.05 137.35"/><path class="cls-3" d="M314,150.79c13.18,7.48,34.46,7.33,47.53-.34,6.55-3.84,9.79-8.85,9.74-13.83h0l-.18-6.33L370,131.5c-1.52-3.12-4.41-6.06-8.69-8.48-13.17-7.49-34.45-7.34-47.52.33S300.81,143.3,314,150.79Zm19-11.17c3.43,1.95,3.45,5.14.05,7.14a13.65,13.65,0,0,1-12.37.09c-3.43-1.95-3.46-5.15-.05-7.15A13.68,13.68,0,0,1,333,139.62Z"/><path class="cls-9" d="M313.81,144.82c13.17,7.48,34.45,7.33,47.52-.33s13-20-.19-27.44-34.46-7.34-47.53.33S300.63,137.33,313.81,144.82Zm19-11.17c3.43,1.95,3.45,5.15.05,7.14a13.65,13.65,0,0,1-12.37.09c-3.43-1.95-3.45-5.15,0-7.14A13.65,13.65,0,0,1,332.84,133.65Z"/><path class="cls-4" d="M329.08,148.09a13.53,13.53,0,0,1-8.38-1.24c-2.46-1.4-3.16-3.44-2.11-5.22l-6-4.73-6.21-7c-4.8,7-2.27,15.3,7.57,20.9a41.7,41.7,0,0,0,14.74,4.68Z"/><path class="cls-2" d="M313.81,144.82a40.29,40.29,0,0,0,9.91,3.89,54.47,54.47,0,0,0,7.88,1.36c10.48,1,21.67-.85,29.73-5.58,13.07-7.67,13-20-.19-27.44s-34.46-7.34-47.53.33S300.63,137.33,313.81,144.82Zm19-11.17c3.43,1.95,3.45,5.15.05,7.14a13.65,13.65,0,0,1-12.37.09c-3.43-1.95-3.45-5.15,0-7.14A13.65,13.65,0,0,1,332.84,133.65Z"/><path class="cls-3" d="M307.58,131.22c.64-3.82,3.48-7.56,8.53-10.52,11.62-6.82,30.55-7,42.28-.29,5.82,3.3,8.77,7.67,8.83,12.06.84-5-2.06-10.12-8.69-13.89-11.73-6.66-30.66-6.53-42.29.3C310.4,122.31,307.51,126.78,307.58,131.22Z"/><path class="cls-3" d="M299.65,185.53a13.16,13.16,0,0,1-6.59-1.7c-4.72-2.68-7.35-8.07-7.4-15.16-.09-12.95,8.92-28.82,20.09-35.37,6.12-3.59,12.09-4.09,16.81-1.41a13.18,13.18,0,0,1,4.89,4.89A20.36,20.36,0,0,1,330,147.05c.09,12.95-8.92,28.82-20.09,35.37A20.4,20.4,0,0,1,299.65,185.53ZM316,135a15.7,15.7,0,0,0-7.8,2.45c-9.87,5.78-17.83,19.8-17.75,31.23,0,5.33,1.81,9.26,5,11.07s7.46,1.32,12.06-1.38c9.86-5.78,17.82-19.8,17.74-31.23a15.87,15.87,0,0,0-1.86-7.91h0A8.22,8.22,0,0,0,316,135Z"/><path class="cls-2" d="M322.16,145.46l9.38,2.29,1.35-7a13.65,13.65,0,0,1-12.37.09Z"/><path class="cls-2" d="M313.81,144.82a40.29,40.29,0,0,0,9.91,3.89,54.47,54.47,0,0,0,7.88,1.36c10.48,1,21.67-.85,29.73-5.58l-38.2-.86Z"/><path class="cls-3" d="M327.92,149.64a55.17,55.17,0,0,1-8.29-2.14v5.86a45,45,0,0,0,8.19,2.11C336.57,156.62,327.92,149.64,327.92,149.64Z"/><path class="cls-4" d="M321.83,148.21a39.27,39.27,0,0,1-5.4-2c-5.11-2.4,1.35,6.47,1.35,6.47s1.74.69,4.05,1.4Z"/><polygon class="cls-4" points="417.67 251.19 400.95 261.97 392.82 260.65 412.69 251.04 417.67 251.19"/><path class="cls-6" d="M397.46,305.62s-4.81-2.43-7.77,1.19-7.18,12.15-7.31,17.91,4.56,5.38,7.35,4,10.94-13.2,11.44-15.51-.59-5.45-1.37-6.07S397.46,305.62,397.46,305.62Z"/><path class="cls-4" d="M398.51,304.46l.22,5a2.81,2.81,0,0,1-1.4,2.59,5.6,5.6,0,0,1-3.72.58C390,312,389.66,311,389.4,306S398.51,304.46,398.51,304.46Z"/><path class="cls-6" d="M379.84,296s-4.82-2.43-7.77,1.18-7.19,12.15-7.32,17.92,4.57,5.38,7.36,4,10.94-13.19,11.43-15.5-.58-5.45-1.36-6.07S379.84,296,379.84,296Z"/><path class="cls-4" d="M380.89,294.87l.22,5a2.82,2.82,0,0,1-1.41,2.6A5.55,5.55,0,0,1,376,303c-3.63-.59-3.95-1.62-4.21-6.61S380.89,294.87,380.89,294.87Z"/><path class="cls-2" d="M423.85,203.29c-1.43-23.19-25.11,3.41-25.11,3.41l-16.21,15.89-14.6,16a14.37,14.37,0,0,0-3.62,11.56l5.9,45a4.41,4.41,0,0,0,4.43,3.84,15.69,15.69,0,0,0,2.19-.19,5.49,5.49,0,0,0,4.88-5.83l-1.08-42.06,30.65-18.48S425.27,226.47,423.85,203.29Z"/><path class="cls-4" d="M392.34,243l-4.36-1.6c-.1,0-7.41,7.08-7.35,9.55l3.28,1.06,8.24-8Z"/><path class="cls-4" d="M417.67,251.19s18.22-10.4,20.4-14.76c.85-1.71,2.18-3.5-3.14-6.08l-24.29,17.32,1.05,6Z"/><path class="cls-2" d="M441.47,212.24c-1.52-23.18-25.11,3.41-25.11,3.41l-16.21,15.89-14.59,16a14.36,14.36,0,0,0-3.63,11.56l5.9,45a4.44,4.44,0,0,0,4.44,3.85,15.72,15.72,0,0,0,2.18-.2,5.49,5.49,0,0,0,4.88-5.83l-1.08-42.05,30.66-18.48S442.86,233.43,441.47,212.24Z"/><path class="cls-4" d="M427.46,137.69c18,7.45,17.6,18.06,17.6,18.06s-3.52,38.92-2.32,64.91c.5,10.86-57.72,11.69-49-17.3,10.24-34.17,6.4-61.84,11.19-66S422.82,135.77,427.46,137.69Z"/><path class="cls-10" d="M433.24,147.11c-.94,3.64-5.72,5.56-10.67,4.29s-8.21-5.27-7.27-8.92,5.72-5.56,10.67-4.29S434.18,143.46,433.24,147.11Z"/><path class="cls-7" d="M425.6,152.65a13.16,13.16,0,0,1-3.24-.42,11.89,11.89,0,0,1-6.3-3.86,6.87,6.87,0,0,1-1.59-6.1c1-4.1,6.31-6.3,11.71-4.91a11.89,11.89,0,0,1,6.3,3.86,6.88,6.88,0,0,1,1.59,6.1C433.23,150.58,429.72,152.65,425.6,152.65Zm-2.7-14c-3.34,0-6.13,1.55-6.77,4a5.21,5.21,0,0,0,1.26,4.59,10.29,10.29,0,0,0,5.39,3.28c4.49,1.15,8.81-.5,9.63-3.68a5.24,5.24,0,0,0-1.26-4.59,10.29,10.29,0,0,0-5.39-3.28A11.55,11.55,0,0,0,422.9,138.66Z"/><path class="cls-10" d="M420.26,136.88a43.19,43.19,0,0,1-.15,6.41c-.1,1.79,6.16,3.46,7.78,1.85s1-3.31,1.36-9.4S420.26,136.88,420.26,136.88Z"/><path class="cls-11" d="M429.25,135.74s-1.54,5.65-9.15,7.81l.12-5.13Z"/><path class="cls-10" d="M434.07,121.4a13.82,13.82,0,1,1-16.84-9.92A13.82,13.82,0,0,1,434.07,121.4Z"/><path class="cls-11" d="M423.86,125.37s-7.61,3.26-12.88,3.3-4.11-4.38-4.11-4.38L422.51,122Z"/><path class="cls-1" d="M409.41,126.23s6.63-2.82,12.44-1.64a6,6,0,0,1,3.52,2.09,2.15,2.15,0,0,0,1.06.77c1,.23,2.72-4,4.73-4.15s3.34,1.32,1.7,4-1.09,5.57-.34,6,8.78-5.72,1.71-19.73-25.05-6.47-27.85-3.63c0,0-2.94,2.57-5.34.28C401,110.17,398.36,130.28,409.41,126.23Z"/><path class="cls-10" d="M435,184.18V194.7a4.27,4.27,0,0,1-1.39,3.16L412,217.56l2.45,3.75L443,200.62a5.78,5.78,0,0,0,2.36-4.09l1.93-18.33Z"/><path class="cls-4" d="M443.54,150.49s6.55,9.86,9,35.8c0,0-11.19,3.62-17.55,1.57S443.54,150.49,443.54,150.49Z"/><path class="cls-3" d="M433.79,163s-2.57,13.73-2.71,20.18a4.13,4.13,0,0,0,2.71,4h0Z"/><path class="cls-6" d="M428.18,231.23l-4.77-.63-30.82-17.79a4.27,4.27,0,0,0-3.85.16l-21.84,12.6-2.89-.38v2.87h0a1.13,1.13,0,0,0,.67,1l34.92,20.17a4.29,4.29,0,0,0,3.86-.16l23.78-13.73a1.54,1.54,0,0,0,.94-1.29h0Z"/><path class="cls-3" d="M405,220l-2.19-1.27H378.77l-11.87,6.85-2.89-.38v2.87h0a1.13,1.13,0,0,0,.67,1l34.92,20.17a3.63,3.63,0,0,0,2,.37Z"/><path class="cls-4" d="M365.29,225.36l-1.28-.17v2.87h0a1.13,1.13,0,0,0,.67,1l.61.36Z"/><path class="cls-12" d="M400,249.4a4.44,4.44,0,0,0,3.27-.2v-4.89H400Z"/><path class="cls-7" d="M399.6,246.37,364.68,226.2c-1-.57-.87-1.56.27-2.22l23.79-13.73a4.27,4.27,0,0,1,3.85-.16l34.93,20.17c1,.57.86,1.56-.28,2.22l-23.78,13.73A4.29,4.29,0,0,1,399.6,246.37Z"/><path class="cls-2" d="M399,243.31l-29-16.77c-.82-.47-.72-1.3.23-1.85L383,217.53a3.56,3.56,0,0,1,3.2-.14l29,16.77c.82.48.72,1.3-.23,1.85l-12.74,7.17A3.55,3.55,0,0,1,399,243.31Z"/><path class="cls-10" d="M390.09,209.59l-.36,2.41a17.83,17.83,0,0,0,.15,6.18l.43,2.12a3,3,0,0,0,2.4,2.35h0a1.65,1.65,0,0,0,1.93-1.44l.57-5.15s1.32,1.73,2,1.73-.71-5.16-2.15-8.08S390.09,209.59,390.09,209.59Z"/><path class="cls-10" d="M401.93,171.29l-3.75,7.42a14.5,14.5,0,0,0-1.54,5.63L395,209.71l-4.93-.12-2.24-28.49a10.16,10.16,0,0,1,.13-2.64L390.53,164Z"/><path class="cls-6" d="M398.42,248.3l-2.93-3.82L364.7,226.65a4.28,4.28,0,0,1-1.79-3.42l0-25.21-1.77-2.32,1.66-1h0a1.14,1.14,0,0,1,1.21.07L398.94,215a4.28,4.28,0,0,1,1.79,3.42l0,27.46a1.54,1.54,0,0,1-.66,1.46h0Z"/><path class="cls-3" d="M377.12,233.85l-2.18-1.27-12-20.86,0-13.7-1.77-2.32,1.66-1h0a1.14,1.14,0,0,1,1.21.07L398.94,215a3.62,3.62,0,0,1,1.32,1.54Z"/><path class="cls-4" d="M362,196.73l-.78-1,1.66-1h0a1.14,1.14,0,0,1,1.21.07l.61.36Z"/><path class="cls-12" d="M399.26,215.24a4.56,4.56,0,0,1,1.46,2.94l-3.41,2-1.64-2.84Z"/><path class="cls-4" d="M397.28,216l-34.9-20.2c-1-.58-1.79,0-1.79,1.35l0,27.46a4.3,4.3,0,0,0,1.78,3.42l34.9,20.2c1,.57,1.79,0,1.79-1.35l0-27.46A4.26,4.26,0,0,0,397.28,216Z"/><path class="cls-10" d="M414.44,221.31l-.56,1.16A7.72,7.72,0,0,1,411,225.7l-3.46,2.14a3.46,3.46,0,0,1-3.54.08l-.12-.07a2.08,2.08,0,0,1-.29-3.2l3.62-3.73s-2,1.56-2.61.93c-.42-.46,2-2.7,3.81-2.78a7.25,7.25,0,0,0,3.62-1.51Z"/><path class="cls-4" d="M405.25,137.3S392,151.75,386.62,165a27.14,27.14,0,0,0,15.65,11.4C413.39,179.61,405.25,137.3,405.25,137.3Z"/><path class="cls-3" d="M399.77,175.54l2.16-20.8-5.08,19.49A30.23,30.23,0,0,0,399.77,175.54Z"/><path class="cls-7" d="M415.2,134.38l-3.57-1a8.63,8.63,0,0,0,4.19,3.36c2.49.69,2.88-1.42,2.88-1.42Z"/><path class="cls-2" d="M347.47,102.43a10,10,0,1,1,10-10A10,10,0,0,1,347.47,102.43Zm0-17.81a7.82,7.82,0,1,0,7.81,7.82A7.83,7.83,0,0,0,347.47,84.62Z"/><path class="cls-4" d="M549.55,174.47a7.09,7.09,0,1,1,7.09-7.09A7.1,7.1,0,0,1,549.55,174.47Zm0-12a4.91,4.91,0,1,0,4.91,4.91A4.91,4.91,0,0,0,549.55,162.47Z"/><path class="cls-4" d="M317.14,302.53l-4.81-9.79,9.78-4.81,4.81,9.79Zm-1.89-8.79,2.88,5.87,5.87-2.89-2.88-5.87Z"/><path class="cls-4" d="M459.17,150.85l-4.82-9.78,9.79-4.82L469,146Zm-1.9-8.79,2.89,5.87,5.87-2.88-2.89-5.88Z"/><rect class="cls-4" x="300.35" y="243.7" width="5.01" height="5.01" transform="translate(-77.56 158.88) rotate(-26.18)"/><path class="cls-13" d="M480.31,97.75,453.57,82.32a1.34,1.34,0,0,0-1.38-.11v0l-2.59,1.5,1.82.66v19.48a5.19,5.19,0,0,0,2.15,4.11l25.56,14.75V125l2.62-1.51h0a1.9,1.9,0,0,0,.72-1.71V101.86A5.16,5.16,0,0,0,480.31,97.75Z"/><path class="cls-1" d="M477.67,124.9l-26.74-15.44a5.16,5.16,0,0,1-2.15-4.11V85.47c0-1.59,1-2.32,2.15-1.63l26.74,15.44a5.13,5.13,0,0,1,2.15,4.11v19.88C479.82,124.85,478.86,125.58,477.67,124.9Z"/><path class="cls-7" d="M459.92,102.61c0,1.15-.8,1.61-1.8,1a4,4,0,0,1-1.8-3.13c0-1.15.8-1.61,1.8-1A4,4,0,0,1,459.92,102.61Z"/><path class="cls-7" d="M465.39,105.76c0,1.15-.81,1.62-1.8,1a4,4,0,0,1-1.81-3.12c0-1.15.81-1.62,1.81-1A4,4,0,0,1,465.39,105.76Z"/><path class="cls-7" d="M470.86,108.92c0,1.15-.81,1.61-1.81,1a4,4,0,0,1-1.8-3.13c0-1.15.8-1.61,1.8-1A4,4,0,0,1,470.86,108.92Z"/><path class="cls-4" d="M295.47,266.91l-26.23-15.15a1.34,1.34,0,0,0-1.35-.11h0l-2.55,1.47,1.79.65v19.1a5.09,5.09,0,0,0,2.11,4l25.07,14.47v2.24l2.57-1.48h0a1.89,1.89,0,0,0,.71-1.68V270.94A5,5,0,0,0,295.47,266.91Z"/><path class="cls-2" d="M292.88,293.53l-26.23-15.14a5.07,5.07,0,0,1-2.11-4V254.85c0-1.55.95-2.27,2.11-1.59l26.23,15.14a5,5,0,0,1,2.11,4v19.51C295,293.49,294.05,294.21,292.88,293.53Z"/><path class="cls-7" d="M275.47,271.67c0,1.13-.79,1.58-1.77,1a3.9,3.9,0,0,1-1.77-3.07c0-1.12.79-1.58,1.77-1A3.92,3.92,0,0,1,275.47,271.67Z"/><path class="cls-7" d="M280.83,274.76c0,1.13-.79,1.59-1.77,1a4,4,0,0,1-1.77-3.07c0-1.13.8-1.59,1.77-1A3.9,3.9,0,0,1,280.83,274.76Z"/><path class="cls-7" d="M286.2,277.86c0,1.13-.8,1.59-1.77,1a3.9,3.9,0,0,1-1.77-3.06c0-1.13.79-1.59,1.77-1A4,4,0,0,1,286.2,277.86Z"/></svg>